# xmcd
#
# Track frame offsets: 
#        150
#        10237
#        27225
#        40350
#        52650
#        67087
#        78112
#        90675
#        106462
#        120937
#        139237
#        153450
#        163725
#
# Disc length: 2530 seconds
#
# Revision: 0
# Processed by: cddbd v1.5.2PL0 Copyright (c) Steve Scherf et al.
# Submitted via: ExactAudioCopyFreeDBPlugin 1.0
#
DISCID=9f09e00d
DTITLE=Laredo Rose - Laredo Rose
DYEAR=1998
DGENRE=Acoustic
TTITLE0=Donne-moi ta bierre
TTITLE1=He'll have to go
TTITLE2=Allons a Lafayette
TTITLE3=Que lo sepa el mundo
TTITLE4=Honest I do
TTITLE5=Colinda
TTITLE6=Mon dernier bonsoir
TTITLE7=Bal de la maison
TTITLE8=Ik wer alt
TTITLE9=Ma 'tit belle
TTITLE10=Laredo Rose
TTITLE11=Hey baby, que paso
TTITLE12=Summertime
EXTD=
EXTT0=
EXTT1=
EXTT2=
EXTT3=
EXTT4=
EXTT5=
EXTT6=
EXTT7=
EXTT8=
EXTT9=
EXTT10=
EXTT11=
EXTT12=
PLAYORDER=
